<?xml version="1.0" encoding="UTF-8"?><svg id="Layer_1" xmlns="http://www.w3.org/2000/svg" xmlns:xlink="http://www.w3.org/1999/xlink" viewBox="0 0 199.9 39.8"><defs><style>.cls-1{fill:none;}.cls-2{fill:url(#linear-gradient);}.cls-3{clip-path:url(#clippath);}.cls-4{fill:#fff;}</style><clipPath id="clippath"><path class="cls-1" d="M2.5,17.3c-.5,.2-.8,.6-1.1,1v4.9l3.7,3.1v-5.7h0c-.2,0-.5,0-.7-.2-.2-.1-.3-.3-.4-.5,0-.2,.1-.4,.3-.4,0,0,0,0,0,0,.2,0,0,.3,0,.3,.1,0,.2-.2,.2-.3,0-.2-.4-.5-.9-.3-.2,.1-.4,.3-.5,.6-.2-.2-.3-.5-.3-.8,0-.6,.4-1,.9-1s.3,.5,.3,.5c.3-.1,.4-.3,.3-.6,0-.4-.5-.8-1.2-.8-.2,0-.5,0-.7,.1"/></clipPath><linearGradient id="linear-gradient" x1="-863" y1="-28.1" x2="-862.8" y2="-28.1" gradientTransform="translate(2010.5 -61616) rotate(-90) scale(71.4)" gradientUnits="userSpaceOnUse"><stop offset="0" stop-color="#0091d0"/><stop offset="1" stop-color="#99d4c0"/></linearGradient></defs><g><g><polygon class="cls-4" points="94.5 21.3 91.4 21.3 91.4 16.5 90.2 16.5 90.2 27.3 91.4 27.3 91.4 22.4 94.5 22.4 94.5 27.3 95.6 27.3 95.6 16.5 94.5 16.5 94.5 21.3"/><path class="cls-4" d="M60.9,21.3h-.8v-4.8h-4.6v10.8h5.4v-6Zm-4.3-3.7h2.3v3.7h-2.3v-3.7Zm3.1,8.5h-3.1v-3.7h3.1v3.7Z"/><polygon class="cls-4" points="21.9 22.4 23 22.4 23 26.1 19.7 26.1 19.7 17.6 23.9 17.6 23.9 16.5 18.5 16.5 18.5 27.3 24.1 27.3 24.1 22.4 25.2 22.4 25.2 21.3 21.9 21.3 21.9 22.4"/><path class="cls-4" d="M98.7,27.3h5.4v-10.8h-5.4v10.8Zm4.3-1.1h-3.1v-8.5h3.1v8.5Z"/><polygon class="cls-4" points="27.8 16.5 27.8 27.3 29 27.3 29 17.6 32.1 17.6 32.1 21.3 29.5 21.3 32.5 27.3 33.9 27.3 31.4 22.4 33.2 22.4 33.2 16.5 27.8 16.5"/><path class="cls-4" d="M42.5,27.3v-10.8h-5.4v10.8h1.1v-4.8h3.1v4.8h1.1Zm-4.3-9.6h3.1v3.7h-3.1v-3.7Z"/><polygon class="cls-4" points="69.3 17.6 69.3 16.5 64.3 16.5 64.3 27.3 69.3 27.3 69.3 26.1 65.4 26.1 65.4 22.4 69.3 22.4 69.3 21.3 65.4 21.3 65.4 17.6 69.3 17.6"/><polygon class="cls-4" points="118.9 17.6 118.9 16.5 113.9 16.5 113.9 27.3 118.9 27.3 118.9 26.1 115 26.1 115 22.4 118.9 22.4 118.9 21.3 115 21.3 115 17.6 118.9 17.6"/><polygon class="cls-4" points="77.3 26.1 73.4 26.1 73.4 16.5 72.3 16.5 72.3 27.3 77.3 27.3 77.3 26.1"/><polygon class="cls-4" points="84.6 26.1 80.8 26.1 80.8 16.5 79.6 16.5 79.6 27.3 84.6 27.3 84.6 26.1"/><polygon class="cls-4" points="126.5 26.1 122.6 26.1 122.6 16.5 121.5 16.5 121.5 27.3 126.5 27.3 126.5 26.1"/><polygon class="cls-4" points="106.3 17.6 108.5 17.6 108.5 27.3 109.7 27.3 109.7 17.6 111.9 17.6 111.9 16.5 106.3 16.5 106.3 17.6"/><polygon class="cls-4" points="50.7 16.5 50.7 21.5 47 16.5 45.9 16.5 45.9 27.3 47 27.3 47 18.6 50.7 23.6 50.7 27.3 51.9 27.3 51.9 16.5 50.7 16.5"/></g><g><path class="cls-4" d="M189.1,21.3h-.8v-4.8h-4.6v10.8h5.4v-6Zm-4.3-3.7h2.3v3.7h-2.3v-3.7Zm3.1,8.5h-3.1v-3.7h3.1v3.7Z"/><path class="cls-4" d="M142,27.2h5.4v-10.8h-5.4v10.8Zm4.3-1.1h-3.1v-8.5h3.1v8.5Z"/><path class="cls-4" d="M161.7,27.2h5.4v-10.8h-5.4v10.8Zm4.3-1.1h-3.1v-8.5h3.1v8.5Z"/><path class="cls-4" d="M194.1,27.2h5.4v-10.8h-5.4v10.8Zm4.3-1.1h-3.1v-8.5h3.1v8.5Z"/><polygon class="cls-4" points="157.3 26.1 153.5 26.1 153.5 16.5 152.3 16.5 152.3 27.2 157.3 27.2 157.3 26.1"/><polygon class="cls-4" points="177.6 16.5 175.4 19.4 173.2 16.5 172.1 16.5 172.1 27.2 173.2 27.2 173.2 18.6 175.4 21.5 177.6 18.6 177.6 27.2 178.7 27.2 178.7 16.5 177.6 16.5"/><polygon class="cls-4" points="137.5 17.6 137.5 16.5 132.2 16.5 132.2 27.2 137.5 27.2 137.5 26.1 133.3 26.1 133.3 17.6 137.5 17.6"/></g></g><g><path class="cls-4" d="M5.1,21.9l3.7-3v4.4c-.3,.3-3.2,2.7-3.7,3.1-.5-.4-3.4-2.9-3.7-3.1V14.1l3.7,2.8,4.7-3.5-4.7-3.2L.4,13.3v10.5l4.7,4.2,4.7-4.2v-6.9l-4.7,3.8v1.3Z"/><g class="cls-3"><rect class="cls-2" x="1.4" y="17.2" width="3.7" height="9.2"/></g></g><rect class="cls-1" width="199.9" height="39.8"/></svg>